<svg version="1.2" xmlns="http://www.w3.org/2000/svg" viewBox="0 0 434 430" width="434" height="430">
	<title>Up</title>
	<style>
		.s0 { fill: #FFFFFF } 
	</style>
	<path id="Down" class="s0" d="m216.6 298.9c-40.4 0-74.1-28.6-82.1-66.6h-134.4c9.5 110.5 102.2 197.2 215.1 197.2 112.9 0 205.7-86.7 215.1-197.2h-131.6c-8 38.1-41.7 66.6-82.1 66.6z"/>
	<path id="Center" class="s0" d="m266.1 215q-0.2 0 0 0c-0.1-6.1-1.2-11.9-3.2-17.3-7-18.8-25.1-32.1-46.3-32.1-21.2 0-39.3 13.4-46.3 32.1-2 5.4-3.1 11.2-3.1 17.3h0.1c0 6.1 1.1 11.9 3.1 17.3 7 18.8 25.1 32.1 46.3 32.1 21.2 0 39.3-13.4 46.3-32.1 2-5.3 3.1-11.2 3.1-17.3z"/>
	<path id="Up" class="s0" d="m216.7 131.2c40.4 0 74.1 28.6 82.1 66.6h134.4c-9.5-110.6-102.2-197.3-215.2-197.3-113 0-205.6 86.7-215.1 197.2h131.7c8-38 41.7-66.5 82.1-66.5z"/>
</svg>